<svg
    width="345"
    height="345"
    viewBox="0 0 345 345"
    xmlns="http://www.w3.org/2000/svg"
>
    <style>
        .logo {
        fill: black;
        }
        @media (prefers-color-scheme: dark) {
        .logo {
            fill: white;
        }
        }
    </style>
    <g clip-path="url(#clip0_1_2)">
    <path class="logo" d="M166.848 13.4492C158.527 14.2109 148.156 17.4336 139.836 21.8281C128.82 27.6289 60.6758 68.0586 53.6445 72.9219C42.3945 80.7148 32.2578 93.1367 28.039 104.328C22.9414 117.98 21.7695 131.574 21.8867 177.395C22.0039 218.059 22.6484 227.844 25.9297 239.68C28.332 248.293 34.3672 258.195 41.9844 266.047C50.0117 274.309 53.8789 276.945 81.3008 292.766C90.6758 298.215 100.695 304.016 103.566 305.715C119.504 315.031 136.145 324.582 141.477 327.336C163.566 338.937 185.012 339.23 206.984 328.098C215.012 324.055 279.582 285.91 289.895 279.113C308.645 266.809 320.656 248.41 323 228.371C323.937 220.637 324.816 173.82 324.465 152.199C323.996 128.059 323 117.336 320.363 109.309C316.613 98 311.633 89.9727 303.195 81.418C294.348 72.3945 288.957 68.8203 250.051 46.4375C238.156 39.582 224.797 31.8477 220.461 29.3281C209.094 22.6484 199.25 17.9609 193.215 16.2617C183.898 13.5664 175.344 12.6875 166.848 13.4492ZM183.254 59.0938C198.547 62.7266 209.68 76.5547 209.562 91.8477C209.504 100.695 206.926 107.785 200.832 115.93C192.863 126.594 182.258 133.332 159.23 142.531C141.477 149.562 130.637 156.242 118.918 167.141C104.738 180.383 96.7109 195.148 90.6172 219.23C89.2109 224.797 87.5117 230.305 86.8086 231.359C82.8828 237.687 74.2109 236.984 69.5234 229.895C64.7773 222.687 63.957 214.25 64.0156 173.996C64.0156 142.824 64.3672 134.504 66.125 127.59C68.1172 119.445 73.4492 111.301 80.3047 105.852C85.4609 101.809 136.027 71.6914 146.75 66.3008C162.395 58.4492 172.297 56.457 183.254 59.0938ZM272.844 114.641C277.59 118.215 280.227 124.133 281.457 133.742C281.809 136.496 282.219 152.141 282.395 168.547C282.687 199.191 282.277 210.91 280.461 219.816C277.824 232.59 270.734 242.785 259.484 249.992C250.754 255.676 207.043 281.047 200.246 284.504C195.207 286.965 187.004 289.777 181.555 290.773C158.293 295.051 134.621 272.961 136.32 248.527C137.023 239.27 140.598 229.66 146.867 220.227C155.832 206.867 168.723 197.023 187.941 188.937C207.277 180.793 217.824 173.996 228.664 162.687C237.277 153.723 244.25 143.586 253.215 127.004C256.672 120.734 259.484 116.223 261.008 114.758C263.293 112.59 263.41 112.531 267.043 112.766C269.914 112.941 271.145 113.352 272.844 114.641Z" />
    </g>
    <defs>
    <clipPath id="clip0_1_2">
        <rect width="345" height="345" />
    </clipPath>
    </defs>
</svg>